<svg width="73" height="57" viewBox="0 0 73 57" id="logo" fill="none" xmlns="http://www.w3.org/2000/svg"><path d="M11.0083 6.36001C12.5683 4.4 15.3283 3.06 19.2883 2.34C21.0083 2.06001 22.7683 1.92001 24.5683 1.92001C26.3683 1.92001 28.2283 2.08001 30.1483 2.40001C31.1883 1.24 32.2483 0.660004 33.3283 0.660004C33.6083 0.660004 33.7883 0.740004 33.8683 0.900004C33.9883 1.02001 33.9883 1.16001 33.8683 1.32001C33.7483 1.48001 33.4683 1.64001 33.0283 1.8C32.6283 1.92 32.1483 2.22001 31.5883 2.70001C32.9483 3.10001 33.8883 3.44001 34.4083 3.72C34.9283 3.96001 35.3083 4.28001 35.5483 4.68001C35.8283 5.08 35.9683 5.36 35.9683 5.52001C35.9683 5.88001 35.4083 5.88001 34.2883 5.52001C33.2083 5.16001 31.9283 4.88 30.4483 4.68001C29.7283 6.4 28.9683 8.76 28.1683 11.76C27.3683 14.76 26.8883 16.56 26.7283 17.16C28.8883 16.64 30.3283 16.38 31.0483 16.38C31.8083 16.38 32.2683 16.44 32.4283 16.56C32.5883 16.64 32.6683 16.76 32.6683 16.92C32.7083 17.08 32.6883 17.22 32.6083 17.34C32.5283 17.42 32.3883 17.42 32.1883 17.34C32.0283 17.26 31.7083 17.22 31.2283 17.22C30.7483 17.22 29.8483 17.4 28.5283 17.76C27.2083 18.08 26.4283 18.58 26.1883 19.26C22.5083 29.38 17.8283 36.42 12.1483 40.38C9.62826 42.18 7.32826 43.08 5.24826 43.08C4.48826 43.08 3.76826 42.96 3.08826 42.72C1.04826 42.04 0.0282593 40.52 0.0282593 38.16C0.0282593 35.84 1.24826 33.28 3.68826 30.48C8.60826 24.84 15.2483 20.7 23.6083 18.06C23.7283 17.7 24.1083 16.52 24.7483 14.52C26.1483 9.96 27.4483 6.64 28.6483 4.56C28.1683 4.56 27.4483 4.56 26.4883 4.56C25.5283 4.56 24.1683 4.66 22.4083 4.86C17.8883 5.38 14.6683 6.52 12.7483 8.28001C11.7483 9.24001 11.2483 10.34 11.2483 11.58C11.2483 12.18 11.4083 12.72 11.7283 13.2C12.0883 13.68 12.4283 14.02 12.7483 14.22C13.2683 14.58 13.9683 14.98 14.8483 15.42C15.3283 15.78 15.4283 16 15.1483 16.08C15.0283 16.08 14.8883 16.06 14.7283 16.02C13.7683 15.82 12.7483 15.24 11.6683 14.28C10.5883 13.32 10.0283 12.22 9.98826 10.98C9.86826 10.54 9.80826 10.18 9.80826 9.9C9.80826 8.58 10.2083 7.40001 11.0083 6.36001ZM3.14826 37.74C3.14826 38.18 3.18826 38.62 3.26826 39.06C3.66826 40.58 4.66826 41.34 6.26826 41.34C8.62826 41.34 11.1083 39.76 13.7083 36.6C17.5483 31.92 20.7283 26.12 23.2483 19.2C16.2483 21.48 10.7083 25.18 6.62826 30.3C4.30826 33.14 3.14826 35.62 3.14826 37.74Z" stroke="#005dff" stroke-width="1"></path><path d="M47.2614 29.4C47.9814 27.92 48.3414 26.78 48.3414 25.98C48.3414 25.18 48.2414 24.56 48.0414 24.12C47.8814 23.64 47.9614 23.24 48.2814 22.92C48.6414 22.6 49.0814 22.48 49.6014 22.56C50.4014 22.76 50.8014 23.66 50.8014 25.26C50.8014 26.86 49.8614 28.96 47.9814 31.56C48.0214 32.64 48.5814 33.18 49.6614 33.18C50.7414 33.18 52.3814 32.02 54.5814 29.7C55.6214 28.5 56.2614 27.72 56.5014 27.36C56.7814 27 57.0214 26.88 57.2214 27C57.4214 27.08 57.5214 27.16 57.5214 27.24C57.5214 27.64 56.8014 28.68 55.3614 30.36C53.0814 33.16 51.0614 34.56 49.3014 34.56C48.1414 34.56 47.3214 34.06 46.8414 33.06C46.0414 33.9 45.2614 34.68 44.5014 35.4C42.9414 36.72 41.2014 37.38 39.2814 37.38C38.2014 37.38 37.3014 37.12 36.5814 36.6C35.1814 35.76 34.4814 34.26 34.4814 32.1C34.4814 29.74 35.2814 27.34 36.8814 24.9C37.8014 23.46 38.8814 22.2 40.1214 21.12C42.0814 19.4 43.9414 18.54 45.7014 18.54C46.1414 18.54 46.5614 18.6 46.9614 18.72C48.1614 19.12 48.7614 19.88 48.7614 21C48.7614 21.92 48.5214 22.38 48.0414 22.38C47.8414 22.3 47.7414 22 47.7414 21.48C47.7414 20.76 47.3414 20.4 46.5414 20.4C45.1414 20.4 43.3414 21.68 41.1414 24.24C38.9414 26.8 37.6214 29.38 37.1814 31.98C37.1014 32.42 37.0614 32.92 37.0614 33.48C37.0614 34 37.2414 34.62 37.6014 35.34C37.9614 36.02 38.6214 36.36 39.5814 36.36C40.5814 36.36 41.6614 35.92 42.8214 35.04C43.9814 34.16 45.0214 33.04 45.9414 31.68L45.7614 31.32C45.6014 30.68 45.6814 30.16 46.0014 29.76C46.3214 29.36 46.7414 29.24 47.2614 29.4Z" stroke="#005dff" stroke-width="1"></path><path d="M65.4765 19.2C68.5565 18.92 70.4165 18.78 71.0565 18.78C71.7365 18.78 72.0765 18.88 72.0765 19.08C72.0765 19.32 71.5965 19.58 70.6365 19.86C69.7165 20.1 67.4365 20.42 63.7965 20.82C63.5965 21.18 63.3565 21.6 63.0765 22.08C62.4765 23.04 62.1565 23.62 62.1165 23.82C59.8365 28.38 58.6365 31.28 58.5165 32.52C58.4765 32.88 58.4565 33.34 58.4565 33.9C58.4565 34.46 58.6165 34.92 58.9365 35.28C59.4965 35.92 60.2965 35.96 61.3365 35.4C62.3765 34.84 63.8165 33.72 65.6565 32.04C67.5365 30.36 69.0565 28.72 70.2165 27.12C70.3765 26.92 70.5765 26.88 70.8165 27C71.4165 27.28 70.3765 28.86 67.6965 31.74C65.1365 34.5 62.9965 36.2 61.2765 36.84C60.2765 37.2 59.4365 37.38 58.7565 37.38C57.1565 37.38 56.0965 36.62 55.5765 35.1C55.4965 34.82 55.4565 34.48 55.4565 34.08C55.4565 32.68 56.0965 30.56 57.3765 27.72C57.1765 28.16 56.3965 29.16 55.0365 30.72C54.6765 31.12 54.3965 31.12 54.1965 30.72C54.1565 30.64 54.1365 30.54 54.1365 30.42C54.1365 30.26 54.2165 30.08 54.3765 29.88C56.3365 27.44 57.8765 25.38 58.9965 23.7C58.9965 23.66 59.4365 22.82 60.3165 21.18C59.9165 21.26 59.4965 21.3 59.0565 21.3C58.6565 21.3 58.3565 21.18 58.1565 20.94C57.9565 20.66 57.9365 20.34 58.0965 19.98C58.3765 19.34 59.4365 18.98 61.2765 18.9C61.3165 18.82 61.3965 18.78 61.5165 18.78L64.5165 13.2C64.6765 12.88 64.8565 12.56 65.0565 12.24C65.2565 11.88 65.3965 11.62 65.4765 11.46C65.5965 11.26 65.7165 11.06 65.8365 10.86C65.9565 10.66 66.0565 10.52 66.1365 10.44C66.2165 10.36 66.2965 10.28 66.3765 10.2C66.5365 9.96001 66.9965 9.84 67.7565 9.84C68.5565 9.84 69.0965 10.06 69.3765 10.5C69.4965 10.66 69.5565 10.94 69.5565 11.34C69.5565 11.7 69.4165 12.12 69.1365 12.6C68.8565 13.04 68.5565 13.36 68.2365 13.56C67.9165 13.76 67.6965 13.98 67.5765 14.22L64.6965 19.26L65.4765 19.2Z" stroke="#005dff" stroke-width="1"></path></svg>